<svg version="1.1" id="Layer_1" xmlns="http://www.w3.org/2000/svg" xmlns:xlink="http://www.w3.org/1999/xlink" x="0px" y="0px"
	 width="100%" viewBox="0 0 150 150" enable-background="new 0 0 150 150" xml:space="preserve">
<path fill="#1C0B38" opacity="1.000000" stroke="none" 
	d="
M97.000000,151.000000 
	C64.666664,151.000000 32.833332,151.000000 1.000000,151.000000 
	C1.000000,101.000000 1.000000,51.000000 1.000000,1.000000 
	C51.000000,1.000000 101.000000,1.000000 151.000000,1.000000 
	C151.000000,51.000000 151.000000,101.000000 151.000000,151.000000 
	C133.166672,151.000000 115.333336,151.000000 97.000000,151.000000 
M61.744473,118.598183 
	C59.010876,120.001038 56.277275,121.403893 53.543678,122.806747 
	C53.626793,123.339203 53.709904,123.871658 53.793018,124.404114 
	C57.133862,124.783409 60.466545,125.269814 63.816833,125.525192 
	C93.015144,127.750832 115.487442,109.558678 118.820213,80.929832 
	C120.694771,64.827148 116.806580,49.161541 114.455864,33.457672 
	C113.164459,24.830437 109.382805,24.002707 102.492714,29.677982 
	C100.074127,31.670147 98.171997,31.725863 95.344765,30.788509 
	C82.824219,26.637402 70.094650,26.625383 57.531597,30.404638 
	C53.836075,31.516340 51.348320,31.670313 48.176594,29.012568 
	C42.331463,24.114647 39.571560,25.218977 37.168125,32.572029 
	C36.806778,33.677544 36.419933,34.801163 36.271725,35.945778 
	C34.907265,46.483170 32.972870,56.992962 32.391212,67.576019 
	C31.131729,90.492027 38.570683,111.115311 67.671677,114.808739 
	C67.834778,114.829445 67.991768,114.898293 67.621223,115.378860 
	C65.890045,116.395950 64.158875,117.413048 61.744473,118.598183 
z"/>
<path fill="#6638B5" opacity="1.000000" stroke="none" 
	d="
M68.151611,114.944656 
	C67.991768,114.898293 67.834778,114.829445 67.671677,114.808739 
	C38.570683,111.115311 31.131729,90.492027 32.391212,67.576019 
	C32.972870,56.992962 34.907265,46.483170 36.271725,35.945778 
	C36.419933,34.801163 36.806778,33.677544 37.168125,32.572029 
	C39.571560,25.218977 42.331463,24.114647 48.176594,29.012568 
	C51.348320,31.670313 53.836075,31.516340 57.531597,30.404638 
	C70.094650,26.625383 82.824219,26.637402 95.344765,30.788509 
	C98.171997,31.725863 100.074127,31.670147 102.492714,29.677982 
	C109.382805,24.002707 113.164459,24.830437 114.455864,33.457672 
	C116.806580,49.161541 120.694771,64.827148 118.820213,80.929832 
	C115.487442,109.558678 93.015144,127.750832 63.816833,125.525192 
	C60.466545,125.269814 57.133862,124.783409 53.793018,124.404114 
	C53.709904,123.871658 53.626793,123.339203 53.543678,122.806747 
	C56.277275,121.403893 59.010876,120.001038 62.578857,118.624664 
	C71.954094,119.226227 80.219276,118.195335 89.393372,114.944656 
	C81.388107,114.944656 74.769859,114.944656 68.151611,114.944656 
M84.850243,44.257565 
	C79.539024,44.167946 74.190018,43.632553 68.924217,44.078823 
	C56.890839,45.098621 50.617725,50.566277 48.861538,62.493607 
	C47.935005,68.786263 48.206905,75.449562 49.121452,81.774353 
	C50.552437,91.670692 57.031445,97.442818 66.859970,98.588058 
	C72.752563,99.274658 78.870110,99.334740 84.745377,98.578964 
	C95.152214,97.240257 100.912682,91.726173 102.624786,81.311676 
	C103.580818,75.496193 103.645111,69.354202 102.974121,63.489449 
	C101.670265,52.093258 96.838348,47.214394 84.850243,44.257565 
z"/>
<path fill="#4F2C96" opacity="1.000000" stroke="none" 
	d="
M67.886414,115.161758 
	C74.769859,114.944656 81.388107,114.944656 89.393372,114.944656 
	C80.219276,118.195335 71.954094,119.226227 62.920471,118.540634 
	C64.158875,117.413048 65.890045,116.395950 67.886414,115.161758 
z"/>
<path fill="#F9F9FA" opacity="1.000000" stroke="none" 
	d="
M85.275627,44.353699 
	C96.838348,47.214394 101.670265,52.093258 102.974121,63.489449 
	C103.645111,69.354202 103.580818,75.496193 102.624786,81.311676 
	C100.912682,91.726173 95.152214,97.240257 84.745377,98.578964 
	C78.870110,99.334740 72.752563,99.274658 66.859970,98.588058 
	C57.031445,97.442818 50.552437,91.670692 49.121452,81.774353 
	C48.206905,75.449562 47.935005,68.786263 48.861538,62.493607 
	C50.617725,50.566277 56.890839,45.098621 68.924217,44.078823 
	C74.190018,43.632553 79.539024,44.167946 85.275627,44.353699 
M68.131950,62.120335 
	C68.073090,61.272015 68.312408,59.883186 67.908485,59.660347 
	C64.481209,57.769581 60.125946,60.458328 59.794521,64.844467 
	C59.494080,68.820602 59.740929,72.835381 59.651608,76.830994 
	C59.572468,80.370941 60.644478,83.599915 64.421158,83.795319 
	C66.560570,83.905998 70.070129,82.329811 70.742897,80.633202 
	C71.995758,77.473656 73.694565,73.364128 69.281204,70.575905 
	C66.052521,68.536125 65.206497,65.873772 68.131950,62.120335 
M89.974495,70.785118 
	C85.780838,67.240204 85.715065,65.903374 89.466072,60.452137 
	C84.701530,58.150688 80.607445,59.658123 80.199516,64.326836 
	C79.767662,69.269409 79.685143,74.342148 80.366310,79.230354 
	C80.617729,81.034554 83.334869,83.531509 85.191750,83.786346 
	C87.076965,84.045074 90.667885,82.289101 91.064934,80.774162 
	C91.852043,77.770927 90.955460,74.326416 89.974495,70.785118 
z"/>
<path fill="#6C3FB7" opacity="1.000000" stroke="none" 
	d="
M67.903198,62.367226 
	C65.206497,65.873772 66.052521,68.536125 69.281204,70.575905 
	C73.694565,73.364128 71.995758,77.473656 70.742897,80.633202 
	C70.070129,82.329811 66.560570,83.905998 64.421158,83.795319 
	C60.644478,83.599915 59.572468,80.370941 59.651608,76.830994 
	C59.740929,72.835381 59.494080,68.820602 59.794521,64.844467 
	C60.125946,60.458328 64.481209,57.769581 67.908485,59.660347 
	C68.312408,59.883186 68.073090,61.272015 67.903198,62.367226 
z"/>
<path fill="#6C40B7" opacity="1.000000" stroke="none" 
	d="
M90.364639,70.924713 
	C90.955460,74.326416 91.852043,77.770927 91.064934,80.774162 
	C90.667885,82.289101 87.076965,84.045074 85.191750,83.786346 
	C83.334869,83.531509 80.617729,81.034554 80.366310,79.230354 
	C79.685143,74.342148 79.767662,69.269409 80.199516,64.326836 
	C80.607445,59.658123 84.701530,58.150688 89.466072,60.452137 
	C85.715065,65.903374 85.780838,67.240204 90.364639,70.924713 
z"/>
</svg>